<svg id="visual" viewBox="0 0 2770 1737" width="2770" height="1737" xmlns="http://www.w3.org/2000/svg" xmlns:xlink="http://www.w3.org/1999/xlink" version="1.1"><rect x="0" y="0" width="2770" height="1737" fill="#00cc88"></rect><defs><linearGradient id="grad1_0" x1="37.3%" y1="0%" x2="100%" y2="100%"><stop offset="18.10592976396085%" stop-color="#038373" stop-opacity="1"></stop><stop offset="81.89407023603914%" stop-color="#038373" stop-opacity="1"></stop></linearGradient></defs><defs><linearGradient id="grad1_1" x1="37.3%" y1="0%" x2="100%" y2="100%"><stop offset="18.10592976396085%" stop-color="#038373" stop-opacity="1"></stop><stop offset="81.89407023603914%" stop-color="#009b7e" stop-opacity="1"></stop></linearGradient></defs><defs><linearGradient id="grad1_2" x1="37.3%" y1="0%" x2="100%" y2="100%"><stop offset="18.10592976396085%" stop-color="#00b485" stop-opacity="1"></stop><stop offset="81.89407023603914%" stop-color="#009b7e" stop-opacity="1"></stop></linearGradient></defs><defs><linearGradient id="grad1_3" x1="37.3%" y1="0%" x2="100%" y2="100%"><stop offset="18.10592976396085%" stop-color="#00b485" stop-opacity="1"></stop><stop offset="81.89407023603914%" stop-color="#00cc88" stop-opacity="1"></stop></linearGradient></defs><defs><linearGradient id="grad2_0" x1="0%" y1="0%" x2="62.7%" y2="100%"><stop offset="18.10592976396085%" stop-color="#038373" stop-opacity="1"></stop><stop offset="81.89407023603914%" stop-color="#038373" stop-opacity="1"></stop></linearGradient></defs><defs><linearGradient id="grad2_1" x1="0%" y1="0%" x2="62.7%" y2="100%"><stop offset="18.10592976396085%" stop-color="#009b7e" stop-opacity="1"></stop><stop offset="81.89407023603914%" stop-color="#038373" stop-opacity="1"></stop></linearGradient></defs><defs><linearGradient id="grad2_2" x1="0%" y1="0%" x2="62.7%" y2="100%"><stop offset="18.10592976396085%" stop-color="#009b7e" stop-opacity="1"></stop><stop offset="81.89407023603914%" stop-color="#00b485" stop-opacity="1"></stop></linearGradient></defs><defs><linearGradient id="grad2_3" x1="0%" y1="0%" x2="62.7%" y2="100%"><stop offset="18.10592976396085%" stop-color="#00cc88" stop-opacity="1"></stop><stop offset="81.89407023603914%" stop-color="#00b485" stop-opacity="1"></stop></linearGradient></defs><g transform="translate(2770, 0)"><path d="M0 1471.3C-172 1386.6 -344.1 1301.9 -507.8 1226C-671.6 1150.1 -827.1 1083.1 -978.6 978.6C-1130.2 874.2 -1277.9 732.4 -1359.3 563C-1440.8 393.7 -1456 196.9 -1471.3 0L0 0Z" fill="#00c087"></path><path d="M0 1103.5C-129 1039.9 -258 976.4 -380.9 919.5C-503.7 862.6 -620.3 812.3 -734 734C-847.7 655.7 -958.4 549.3 -1019.5 422.3C-1080.6 295.3 -1092 147.6 -1103.5 0L0 0Z" fill="#00a782"></path><path d="M0 735.7C-86 693.3 -172 650.9 -253.9 613C-335.8 575.1 -413.5 541.5 -489.3 489.3C-565.1 437.1 -638.9 366.2 -679.7 281.5C-720.4 196.9 -728 98.4 -735.7 0L0 0Z" fill="#008f79"></path><path d="M0 367.8C-43 346.6 -86 325.5 -127 306.5C-167.9 287.5 -206.8 270.8 -244.7 244.7C-282.6 218.6 -319.5 183.1 -339.8 140.8C-360.2 98.4 -364 49.2 -367.8 0L0 0Z" fill="#038373"></path></g><g transform="translate(0, 1737)"><path d="M0 -1471.3C162.8 -1355.9 325.6 -1240.5 479.5 -1157.6C633.4 -1074.7 778.3 -1024.3 936.9 -936.9C1095.6 -849.6 1268 -725.3 1359.3 -563C1450.7 -400.7 1461 -200.4 1471.3 0L0 0Z" fill="#00c087"></path><path d="M0 -1103.5C122.1 -1016.9 244.2 -930.4 359.6 -868.2C475 -806 583.7 -768.2 702.7 -702.7C821.7 -637.2 951 -544 1019.5 -422.3C1088 -300.6 1095.7 -150.3 1103.5 0L0 0Z" fill="#00a782"></path><path d="M0 -735.7C81.4 -678 162.8 -620.3 239.8 -578.8C316.7 -537.4 389.1 -512.1 468.5 -468.5C547.8 -424.8 634 -362.7 679.7 -281.5C725.3 -200.4 730.5 -100.2 735.7 0L0 0Z" fill="#008f79"></path><path d="M0 -367.8C40.7 -339 81.4 -310.1 119.9 -289.4C158.3 -268.7 194.6 -256.1 234.2 -234.2C273.9 -212.4 317 -181.3 339.8 -140.8C362.7 -100.2 365.2 -50.1 367.8 0L0 0Z" fill="#038373"></path></g></svg>