<svg id="visual" viewBox="0 0 2560 1737" width="2560" height="1737" xmlns="http://www.w3.org/2000/svg" xmlns:xlink="http://www.w3.org/1999/xlink" version="1.1"><path d="M0 70L111 53L223 53L334 70L445 53L557 105L668 105L779 53L890 105L1002 70L1113 70L1224 105L1336 70L1447 105L1558 105L1670 88L1781 53L1892 70L2003 53L2115 53L2226 70L2337 88L2449 70L2560 88L2560 0L2449 0L2337 0L2226 0L2115 0L2003 0L1892 0L1781 0L1670 0L1558 0L1447 0L1336 0L1224 0L1113 0L1002 0L890 0L779 0L668 0L557 0L445 0L334 0L223 0L111 0L0 0Z" fill="#00cc8e"></path><path d="M0 227L111 157L223 123L334 175L445 123L557 244L668 209L779 123L890 227L1002 140L1113 140L1224 192L1336 157L1447 244L1558 209L1670 227L1781 123L1892 209L2003 140L2115 123L2226 227L2337 244L2449 192L2560 175L2560 86L2449 68L2337 86L2226 68L2115 51L2003 51L1892 68L1781 51L1670 86L1558 103L1447 103L1336 68L1224 103L1113 68L1002 68L890 103L779 51L668 103L557 103L445 51L334 68L223 51L111 51L0 68Z" fill="#00c58d"></path><path d="M0 366L111 279L223 279L334 296L445 296L557 331L668 366L779 244L890 296L1002 244L1113 314L1224 279L1336 331L1447 348L1558 401L1670 348L1781 209L1892 279L2003 262L2115 244L2226 366L2337 401L2449 314L2560 314L2560 173L2449 190L2337 242L2226 225L2115 121L2003 138L1892 207L1781 121L1670 225L1558 207L1447 242L1336 155L1224 190L1113 138L1002 138L890 225L779 121L668 207L557 242L445 121L334 173L223 121L111 155L0 225Z" fill="#00bf8b"></path><path d="M0 505L111 453L223 505L334 470L445 418L557 470L668 539L779 418L890 487L1002 366L1113 487L1224 383L1336 418L1447 453L1558 557L1670 505L1781 435L1892 383L2003 366L2115 435L2226 522L2337 539L2449 453L2560 470L2560 312L2449 312L2337 399L2226 364L2115 242L2003 260L1892 277L1781 207L1670 346L1558 399L1447 346L1336 329L1224 277L1113 312L1002 242L890 294L779 242L668 364L557 329L445 294L334 294L223 277L111 277L0 364Z" fill="#00b889"></path><path d="M0 835L111 835L223 887L334 800L445 713L557 852L668 748L779 783L890 835L1002 939L1113 783L1224 609L1336 731L1447 835L1558 800L1670 870L1781 731L1892 574L2003 713L2115 748L2226 887L2337 731L2449 887L2560 800L2560 468L2449 451L2337 537L2226 520L2115 433L2003 364L1892 381L1781 433L1670 503L1558 555L1447 451L1336 416L1224 381L1113 485L1002 364L890 485L779 416L668 537L557 468L445 416L334 468L223 503L111 451L0 503Z" fill="#00b187"></path><path d="M0 887L111 904L223 956L334 887L445 783L557 939L668 817L779 870L890 887L1002 991L1113 870L1224 661L1336 765L1447 922L1558 852L1670 939L1781 765L1892 644L2003 765L2115 835L2226 974L2337 765L2449 956L2560 852L2560 798L2449 885L2337 729L2226 885L2115 746L2003 711L1892 572L1781 729L1670 868L1558 798L1447 833L1336 729L1224 607L1113 781L1002 937L890 833L779 781L668 746L557 850L445 711L334 798L223 885L111 833L0 833Z" fill="#00aa85"></path><path d="M0 1165L111 1113L223 1130L334 1026L445 904L557 1130L668 939L779 1113L890 1147L1002 1200L1113 1008L1224 922L1336 1026L1447 1165L1558 1061L1670 1165L1781 956L1892 904L2003 904L2115 1061L2226 1200L2337 991L2449 1182L2560 1078L2560 850L2449 954L2337 763L2226 972L2115 833L2003 763L1892 642L1781 763L1670 937L1558 850L1447 920L1336 763L1224 659L1113 868L1002 989L890 885L779 868L668 815L557 937L445 781L334 885L223 954L111 902L0 885Z" fill="#00a483"></path><path d="M0 1234L111 1234L223 1217L334 1147L445 1043L557 1217L668 1061L779 1182L890 1234L1002 1269L1113 1078L1224 991L1336 1113L1447 1217L1558 1130L1670 1234L1781 1061L1892 974L2003 1026L2115 1182L2226 1269L2337 1130L2449 1269L2560 1147L2560 1076L2449 1180L2337 989L2226 1198L2115 1059L2003 902L1892 902L1781 954L1670 1163L1558 1059L1447 1163L1336 1024L1224 920L1113 1006L1002 1198L890 1145L779 1111L668 937L557 1128L445 902L334 1024L223 1128L111 1111L0 1163Z" fill="#009d80"></path><path d="M0 1321L111 1338L223 1269L334 1200L445 1095L557 1286L668 1147L779 1252L890 1286L1002 1338L1113 1147L1224 1078L1336 1217L1447 1321L1558 1217L1670 1286L1781 1165L1892 1078L2003 1113L2115 1234L2226 1373L2337 1234L2449 1321L2560 1217L2560 1145L2449 1267L2337 1128L2226 1267L2115 1180L2003 1024L1892 972L1781 1059L1670 1232L1558 1128L1447 1215L1336 1111L1224 989L1113 1076L1002 1267L890 1232L779 1180L668 1059L557 1215L445 1041L334 1145L223 1215L111 1232L0 1232Z" fill="#00977d"></path><path d="M0 1564L111 1564L223 1599L334 1547L445 1564L557 1564L668 1582L779 1582L890 1564L1002 1616L1113 1599L1224 1547L1336 1582L1447 1564L1558 1634L1670 1599L1781 1634L1892 1530L2003 1599L2115 1564L2226 1582L2337 1616L2449 1599L2560 1564L2560 1215L2449 1319L2337 1232L2226 1371L2115 1232L2003 1111L1892 1076L1781 1163L1670 1284L1558 1215L1447 1319L1336 1215L1224 1076L1113 1145L1002 1336L890 1284L779 1250L668 1145L557 1284L445 1093L334 1198L223 1267L111 1336L0 1319Z" fill="#00907a"></path><path d="M0 1686L111 1686L223 1686L334 1669L445 1651L557 1686L668 1669L779 1669L890 1651L1002 1703L1113 1669L1224 1651L1336 1703L1447 1669L1558 1686L1670 1703L1781 1686L1892 1651L2003 1686L2115 1669L2226 1669L2337 1669L2449 1651L2560 1686L2560 1562L2449 1597L2337 1614L2226 1580L2115 1562L2003 1597L1892 1528L1781 1632L1670 1597L1558 1632L1447 1562L1336 1580L1224 1545L1113 1597L1002 1614L890 1562L779 1580L668 1580L557 1562L445 1562L334 1545L223 1597L111 1562L0 1562Z" fill="#008977"></path><path d="M0 1738L111 1738L223 1738L334 1738L445 1738L557 1738L668 1738L779 1738L890 1738L1002 1738L1113 1738L1224 1738L1336 1738L1447 1738L1558 1738L1670 1738L1781 1738L1892 1738L2003 1738L2115 1738L2226 1738L2337 1738L2449 1738L2560 1738L2560 1684L2449 1649L2337 1667L2226 1667L2115 1667L2003 1684L1892 1649L1781 1684L1670 1701L1558 1684L1447 1667L1336 1701L1224 1649L1113 1667L1002 1701L890 1649L779 1667L668 1667L557 1684L445 1649L334 1667L223 1684L111 1684L0 1684Z" fill="#038373"></path></svg>