<svg id="visual" viewBox="0 0 2560 1737" width="2560" height="1737" xmlns="http://www.w3.org/2000/svg" xmlns:xlink="http://www.w3.org/1999/xlink" version="1.1"><rect x="0" y="0" width="2560" height="1737" fill="#00cc88"></rect><defs><linearGradient id="grad1_0" x1="32.1%" y1="0%" x2="100%" y2="100%"><stop offset="20.523891767415083%" stop-color="#038373" stop-opacity="1"></stop><stop offset="79.47610823258492%" stop-color="#038373" stop-opacity="1"></stop></linearGradient></defs><defs><linearGradient id="grad1_1" x1="32.1%" y1="0%" x2="100%" y2="100%"><stop offset="20.523891767415083%" stop-color="#038373" stop-opacity="1"></stop><stop offset="79.47610823258492%" stop-color="#009b7e" stop-opacity="1"></stop></linearGradient></defs><defs><linearGradient id="grad1_2" x1="32.1%" y1="0%" x2="100%" y2="100%"><stop offset="20.523891767415083%" stop-color="#00b485" stop-opacity="1"></stop><stop offset="79.47610823258492%" stop-color="#009b7e" stop-opacity="1"></stop></linearGradient></defs><defs><linearGradient id="grad1_3" x1="32.1%" y1="0%" x2="100%" y2="100%"><stop offset="20.523891767415083%" stop-color="#00b485" stop-opacity="1"></stop><stop offset="79.47610823258492%" stop-color="#00cc88" stop-opacity="1"></stop></linearGradient></defs><defs><linearGradient id="grad2_0" x1="0%" y1="0%" x2="67.9%" y2="100%"><stop offset="20.523891767415083%" stop-color="#038373" stop-opacity="1"></stop><stop offset="79.47610823258492%" stop-color="#038373" stop-opacity="1"></stop></linearGradient></defs><defs><linearGradient id="grad2_1" x1="0%" y1="0%" x2="67.9%" y2="100%"><stop offset="20.523891767415083%" stop-color="#009b7e" stop-opacity="1"></stop><stop offset="79.47610823258492%" stop-color="#038373" stop-opacity="1"></stop></linearGradient></defs><defs><linearGradient id="grad2_2" x1="0%" y1="0%" x2="67.9%" y2="100%"><stop offset="20.523891767415083%" stop-color="#009b7e" stop-opacity="1"></stop><stop offset="79.47610823258492%" stop-color="#00b485" stop-opacity="1"></stop></linearGradient></defs><defs><linearGradient id="grad2_3" x1="0%" y1="0%" x2="67.9%" y2="100%"><stop offset="20.523891767415083%" stop-color="#00cc88" stop-opacity="1"></stop><stop offset="79.47610823258492%" stop-color="#00b485" stop-opacity="1"></stop></linearGradient></defs><g transform="translate(2560, 0)"><path d="M0 1392.1C-220.6 1318.5 -441.2 1244.8 -657 1138C-872.8 1031.2 -1083.9 891.3 -1205.6 696.1C-1327.4 500.9 -1359.8 250.4 -1392.1 0L0 0Z" fill="#00c087"></path><path d="M0 1044.1C-165.4 988.8 -330.9 933.6 -492.7 853.5C-654.6 773.4 -812.9 668.4 -904.2 522.1C-995.5 375.7 -1019.8 187.8 -1044.1 0L0 0Z" fill="#00a782"></path><path d="M0 696.1C-110.3 659.2 -220.6 622.4 -328.5 569C-436.4 515.6 -542 445.6 -602.8 348C-663.7 250.4 -679.9 125.2 -696.1 0L0 0Z" fill="#008f79"></path><path d="M0 348C-55.1 329.6 -110.3 311.2 -164.2 284.5C-218.2 257.8 -271 222.8 -301.4 174C-331.8 125.2 -339.9 62.6 -348 0L0 0Z" fill="#038373"></path></g><g transform="translate(0, 1737)"><path d="M0 -1392.1C171.5 -1233.5 343 -1074.8 565 -978.6C787 -882.4 1059.4 -848.8 1205.6 -696.1C1351.9 -543.4 1372 -271.7 1392.1 0L0 0Z" fill="#00c087"></path><path d="M0 -1044.1C128.6 -925.1 257.3 -806.1 423.7 -734C590.2 -661.8 794.5 -636.6 904.2 -522.1C1013.9 -407.5 1029 -203.8 1044.1 0L0 0Z" fill="#00a782"></path><path d="M0 -696.1C85.8 -616.7 171.5 -537.4 282.5 -489.3C393.5 -441.2 529.7 -424.4 602.8 -348C676 -271.7 686 -135.8 696.1 0L0 0Z" fill="#008f79"></path><path d="M0 -348C42.9 -308.4 85.8 -268.7 141.2 -244.7C196.7 -220.6 264.8 -212.2 301.4 -174C338 -135.8 343 -67.9 348 0L0 0Z" fill="#038373"></path></g></svg>