<svg id="visual" viewBox="0 0 2560 1737" width="2560" height="1737" xmlns="http://www.w3.org/2000/svg" xmlns:xlink="http://www.w3.org/1999/xlink" version="1.1"><rect x="0" y="0" width="2560" height="1737" fill="#00cc88"></rect><defs><linearGradient id="grad1_0" x1="32.1%" y1="0%" x2="100%" y2="100%"><stop offset="20.523891767415083%" stop-color="#038373" stop-opacity="1"></stop><stop offset="79.47610823258492%" stop-color="#038373" stop-opacity="1"></stop></linearGradient></defs><defs><linearGradient id="grad1_1" x1="32.1%" y1="0%" x2="100%" y2="100%"><stop offset="20.523891767415083%" stop-color="#038373" stop-opacity="1"></stop><stop offset="79.47610823258492%" stop-color="#009b7e" stop-opacity="1"></stop></linearGradient></defs><defs><linearGradient id="grad1_2" x1="32.1%" y1="0%" x2="100%" y2="100%"><stop offset="20.523891767415083%" stop-color="#00b485" stop-opacity="1"></stop><stop offset="79.47610823258492%" stop-color="#009b7e" stop-opacity="1"></stop></linearGradient></defs><defs><linearGradient id="grad1_3" x1="32.1%" y1="0%" x2="100%" y2="100%"><stop offset="20.523891767415083%" stop-color="#00b485" stop-opacity="1"></stop><stop offset="79.47610823258492%" stop-color="#00cc88" stop-opacity="1"></stop></linearGradient></defs><defs><linearGradient id="grad2_0" x1="0%" y1="0%" x2="67.9%" y2="100%"><stop offset="20.523891767415083%" stop-color="#038373" stop-opacity="1"></stop><stop offset="79.47610823258492%" stop-color="#038373" stop-opacity="1"></stop></linearGradient></defs><defs><linearGradient id="grad2_1" x1="0%" y1="0%" x2="67.9%" y2="100%"><stop offset="20.523891767415083%" stop-color="#009b7e" stop-opacity="1"></stop><stop offset="79.47610823258492%" stop-color="#038373" stop-opacity="1"></stop></linearGradient></defs><defs><linearGradient id="grad2_2" x1="0%" y1="0%" x2="67.9%" y2="100%"><stop offset="20.523891767415083%" stop-color="#009b7e" stop-opacity="1"></stop><stop offset="79.47610823258492%" stop-color="#00b485" stop-opacity="1"></stop></linearGradient></defs><defs><linearGradient id="grad2_3" x1="0%" y1="0%" x2="67.9%" y2="100%"><stop offset="20.523891767415083%" stop-color="#00cc88" stop-opacity="1"></stop><stop offset="79.47610823258492%" stop-color="#00b485" stop-opacity="1"></stop></linearGradient></defs><g transform="translate(2560, 0)"><path d="M0 1392.1C-217.1 1312.4 -434.2 1232.7 -650.5 1126.7C-866.8 1020.6 -1082.2 888.2 -1205.6 696.1C-1329.1 503.9 -1360.6 252 -1392.1 0L0 0Z" fill="#00c087"></path><path d="M0 1044.1C-162.8 984.3 -325.7 924.6 -487.9 845C-650.1 765.5 -811.6 666.2 -904.2 522.1C-996.8 377.9 -1020.5 189 -1044.1 0L0 0Z" fill="#00a782"></path><path d="M0 696.1C-108.6 656.2 -217.1 616.4 -325.2 563.3C-433.4 510.3 -541.1 444.1 -602.8 348C-664.6 252 -680.3 126 -696.1 0L0 0Z" fill="#008f79"></path><path d="M0 348C-54.3 328.1 -108.6 308.2 -162.6 281.7C-216.7 255.2 -270.5 222.1 -301.4 174C-332.3 126 -340.2 63 -348 0L0 0Z" fill="#038373"></path></g><g transform="translate(0, 1737)"><path d="M0 -1392.1C182.7 -1252.9 365.4 -1113.6 586 -1015C806.6 -916.4 1065 -858.5 1205.6 -696.1C1346.3 -533.7 1369.2 -266.8 1392.1 0L0 0Z" fill="#00c087"></path><path d="M0 -1044.1C137 -939.7 274.1 -835.2 439.5 -761.2C604.9 -687.3 798.7 -643.8 904.2 -522.1C1009.7 -400.3 1026.9 -200.1 1044.1 0L0 0Z" fill="#00a782"></path><path d="M0 -696.1C91.4 -626.4 182.7 -556.8 293 -507.5C403.3 -458.2 532.5 -429.2 602.8 -348C673.2 -266.8 684.6 -133.4 696.1 0L0 0Z" fill="#008f79"></path><path d="M0 -348C45.7 -313.2 91.4 -278.4 146.5 -253.7C201.6 -229.1 266.2 -214.6 301.4 -174C336.6 -133.4 342.3 -66.7 348 0L0 0Z" fill="#038373"></path></g></svg>