<svg id="visual" viewBox="0 0 2560 1737" width="2560" height="1737" xmlns="http://www.w3.org/2000/svg" xmlns:xlink="http://www.w3.org/1999/xlink" version="1.1"><rect x="0" y="0" width="2560" height="1737" fill="#00cc88"></rect><defs><linearGradient id="grad1_0" x1="32.1%" y1="0%" x2="100%" y2="100%"><stop offset="20.523891767415083%" stop-color="#038373" stop-opacity="1"></stop><stop offset="79.47610823258492%" stop-color="#038373" stop-opacity="1"></stop></linearGradient></defs><defs><linearGradient id="grad1_1" x1="32.1%" y1="0%" x2="100%" y2="100%"><stop offset="20.523891767415083%" stop-color="#038373" stop-opacity="1"></stop><stop offset="79.47610823258492%" stop-color="#009b7e" stop-opacity="1"></stop></linearGradient></defs><defs><linearGradient id="grad1_2" x1="32.1%" y1="0%" x2="100%" y2="100%"><stop offset="20.523891767415083%" stop-color="#00b485" stop-opacity="1"></stop><stop offset="79.47610823258492%" stop-color="#009b7e" stop-opacity="1"></stop></linearGradient></defs><defs><linearGradient id="grad1_3" x1="32.1%" y1="0%" x2="100%" y2="100%"><stop offset="20.523891767415083%" stop-color="#00b485" stop-opacity="1"></stop><stop offset="79.47610823258492%" stop-color="#00cc88" stop-opacity="1"></stop></linearGradient></defs><defs><linearGradient id="grad2_0" x1="0%" y1="0%" x2="67.9%" y2="100%"><stop offset="20.523891767415083%" stop-color="#038373" stop-opacity="1"></stop><stop offset="79.47610823258492%" stop-color="#038373" stop-opacity="1"></stop></linearGradient></defs><defs><linearGradient id="grad2_1" x1="0%" y1="0%" x2="67.9%" y2="100%"><stop offset="20.523891767415083%" stop-color="#009b7e" stop-opacity="1"></stop><stop offset="79.47610823258492%" stop-color="#038373" stop-opacity="1"></stop></linearGradient></defs><defs><linearGradient id="grad2_2" x1="0%" y1="0%" x2="67.9%" y2="100%"><stop offset="20.523891767415083%" stop-color="#009b7e" stop-opacity="1"></stop><stop offset="79.47610823258492%" stop-color="#00b485" stop-opacity="1"></stop></linearGradient></defs><defs><linearGradient id="grad2_3" x1="0%" y1="0%" x2="67.9%" y2="100%"><stop offset="20.523891767415083%" stop-color="#00cc88" stop-opacity="1"></stop><stop offset="79.47610823258492%" stop-color="#00b485" stop-opacity="1"></stop></linearGradient></defs><g transform="translate(2560, 0)"><path d="M0 1469.5C-267.5 1437.1 -535 1404.7 -734.7 1272.6C-934.5 1140.5 -1066.6 908.7 -1177.8 680C-1289 451.3 -1379.2 225.6 -1469.5 0L0 0Z" fill="#00c087"></path><path d="M0 1102.1C-200.6 1077.8 -401.2 1053.5 -551.1 954.5C-700.9 855.4 -800 681.5 -883.3 510C-966.7 338.5 -1034.4 169.2 -1102.1 0L0 0Z" fill="#00a782"></path><path d="M0 734.7C-133.7 718.6 -267.5 702.4 -367.4 636.3C-467.3 570.3 -533.3 454.4 -588.9 340C-644.5 225.6 -689.6 112.8 -734.7 0L0 0Z" fill="#008f79"></path><path d="M0 367.4C-66.9 359.3 -133.7 351.2 -183.7 318.2C-233.6 285.1 -266.7 227.2 -294.4 170C-322.2 112.8 -344.8 56.4 -367.4 0L0 0Z" fill="#038373"></path></g><g transform="translate(0, 1737)"><path d="M0 -1469.5C210.4 -1352.9 420.9 -1236.3 651.5 -1128.4C882.1 -1020.5 1132.9 -921.4 1272.6 -734.7C1412.3 -548.1 1440.9 -274.1 1469.5 0L0 0Z" fill="#00c087"></path><path d="M0 -1102.1C157.8 -1014.7 315.7 -927.2 488.6 -846.3C661.6 -765.4 849.7 -691 954.5 -551.1C1059.2 -411.1 1080.7 -205.5 1102.1 0L0 0Z" fill="#00a782"></path><path d="M0 -734.7C105.2 -676.5 210.4 -618.2 325.7 -564.2C441.1 -510.3 566.5 -460.7 636.3 -367.4C706.2 -274.1 720.5 -137 734.7 0L0 0Z" fill="#008f79"></path><path d="M0 -367.4C52.6 -338.2 105.2 -309.1 162.9 -282.1C220.5 -255.1 283.2 -230.3 318.2 -183.7C353.1 -137 360.2 -68.5 367.4 0L0 0Z" fill="#038373"></path></g></svg>